<svg width="24" height="24" viewBox="0 0 24 24" fill="none" xmlns="http://www.w3.org/2000/svg">
<path fill-rule="evenodd" clip-rule="evenodd" d="M8.75021 2.54974C6.30889 3.38658 4.22866 5.21683 3.06997 7.53301C2.6658 8.33208 2.37477 9.17972 2.19693 10.0597C1.75502 12.2409 2.0622 14.5679 3.06459 16.5548C3.71669 17.8505 4.6544 19.0059 5.78615 19.9076C6.85859 20.7606 8.10349 21.3977 9.42925 21.7486C11.0999 22.1967 12.8783 22.1859 14.5598 21.8026C16.0795 21.4517 17.5185 20.7228 18.6664 19.6646C19.8789 18.547 20.7466 17.0785 21.2047 15.4966C21.7058 13.7743 21.7705 11.9332 21.4581 10.1623C18.3161 10.1623 15.1688 10.1623 12.0268 10.1623C12.0268 11.4689 12.0268 12.7754 12.0268 14.082C13.8484 14.082 15.67 14.082 17.4915 14.082C17.2813 15.3346 16.5376 16.4792 15.4867 17.1864C14.8238 17.6346 14.064 17.9207 13.2772 18.0611C12.4903 18.1961 11.6712 18.2123 10.8843 18.0557C10.0814 17.8937 9.32146 17.559 8.65319 17.0893C7.58614 16.3388 6.77238 15.2428 6.3574 14.0064C5.93165 12.7485 5.92626 11.3501 6.3574 10.0976C6.6592 9.21212 7.155 8.39685 7.81249 7.72737C8.62087 6.89594 9.67176 6.30203 10.8089 6.05909C11.7789 5.85393 12.8029 5.89171 13.7514 6.17786C14.5598 6.42082 15.3035 6.86893 15.9125 7.45203C16.5268 6.83655 17.1412 6.22105 17.7556 5.60557C18.0789 5.27624 18.4185 4.95767 18.731 4.61754C17.7987 3.75371 16.6993 3.05722 15.5029 2.61451C13.3472 1.81547 10.9221 1.79926 8.75021 2.54974Z" fill="white"/>
<path fill-rule="evenodd" clip-rule="evenodd" d="M8.75023 2.5497C10.9167 1.79923 13.3472 1.81544 15.5029 2.60909C16.6993 3.0518 17.7933 3.74287 18.731 4.61212C18.4185 4.95226 18.079 5.27079 17.7556 5.60013C17.1412 6.21563 16.5268 6.83111 15.9125 7.44659C15.3035 6.86351 14.5598 6.42079 13.7514 6.17244C12.8029 5.8863 11.779 5.8431 10.8089 6.05365C9.67717 6.29661 8.62628 6.89049 7.81249 7.72195C7.15502 8.38604 6.65919 9.20668 6.35742 10.0921C5.26341 9.23907 4.16939 8.39143 3.06999 7.53839C4.22868 5.2168 6.30891 3.38655 8.75023 2.5497Z" fill="#EA4335"/>
<path fill-rule="evenodd" clip-rule="evenodd" d="M2.20232 10.0544C2.38016 9.17976 2.67119 8.3267 3.07539 7.52766C4.16938 8.3807 5.26339 9.22834 6.36279 10.0814C5.93166 11.3394 5.93166 12.7377 6.36279 13.9903C5.26878 14.8433 4.17479 15.6964 3.08078 16.544C2.06759 14.5626 1.76041 12.2356 2.20232 10.0544Z" fill="#FBBC05"/>
<path fill-rule="evenodd" clip-rule="evenodd" d="M12.0269 10.157C15.1688 10.157 18.3161 10.157 21.4581 10.157C21.7705 11.9224 21.7005 13.7635 21.2047 15.4912C20.7466 17.0731 19.879 18.5416 18.6664 19.6592C17.6047 18.8332 16.543 18.0071 15.4814 17.1811C16.5323 16.4738 17.276 15.3292 17.4862 14.0766C15.6646 14.0766 13.8431 14.0766 12.0215 14.0766C12.0269 12.7701 12.0269 11.4635 12.0269 10.157Z" fill="#4285F4"/>
<path fill-rule="evenodd" clip-rule="evenodd" d="M3.06999 16.5494C4.16401 15.7017 5.25802 14.8487 6.35201 13.9956C6.77237 15.232 7.58075 16.328 8.64783 17.0785C9.31609 17.5482 10.0813 17.8829 10.879 18.0449C11.6658 18.2069 12.4795 18.1853 13.2718 18.0503C14.0586 17.9099 14.8185 17.6238 15.4813 17.1757C16.543 18.0017 17.6047 18.8278 18.6664 19.6538C17.5185 20.7174 16.0795 21.4409 14.5598 21.7918C12.8784 22.1751 11.0999 22.1859 9.42927 21.7378C8.10351 21.3869 6.85861 20.7552 5.78615 19.8968C4.65981 19.0005 3.7221 17.8452 3.06999 16.5494Z" fill="#34A853"/>
</svg>
