<svg width="24" height="24" viewBox="0 0 24 24" fill="none" xmlns="http://www.w3.org/2000/svg">
<path fill-rule="evenodd" clip-rule="evenodd" d="M16.9697 2.96967C17.5081 2.43119 18.2385 2.12868 19 2.12868C19.7615 2.12868 20.4919 2.43119 21.0303 2.96967C21.5688 3.50814 21.8713 4.23848 21.8713 5C21.8713 5.76152 21.5688 6.49185 21.0303 7.03033L19.5315 8.52919C19.5311 8.52957 19.5307 8.52995 19.5303 8.53033C19.53 8.53071 19.5296 8.53109 19.5292 8.53146L12.5303 15.5303C12.3897 15.671 12.1989 15.75 12 15.75H9C8.58579 15.75 8.25 15.4142 8.25 15V12C8.25 11.8011 8.32902 11.6103 8.46967 11.4697L15.4697 4.46967L16.9697 2.96967ZM16 6.06066L9.75 12.3107V14.25H11.6893L17.9393 8L16 6.06066ZM19 6.93934L17.0607 5L18.0303 4.03033C18.2875 3.77316 18.6363 3.62868 19 3.62868C19.3637 3.62868 19.7125 3.77316 19.9697 4.03033C20.2268 4.2875 20.3713 4.6363 20.3713 5C20.3713 5.36369 20.2268 5.71249 19.9697 5.96967L19 6.93934ZM4.05546 7.05546C4.57118 6.53973 5.27065 6.25 6 6.25H9C9.41421 6.25 9.75 6.58579 9.75 7C9.75 7.41421 9.41421 7.75 9 7.75H6C5.66848 7.75 5.35054 7.8817 5.11612 8.11612C4.8817 8.35054 4.75 8.66848 4.75 9V18C4.75 18.3315 4.8817 18.6495 5.11612 18.8839C5.35054 19.1183 5.66848 19.25 6 19.25H15C15.3315 19.25 15.6495 19.1183 15.8839 18.8839C16.1183 18.6495 16.25 18.3315 16.25 18V15C16.25 14.5858 16.5858 14.25 17 14.25C17.4142 14.25 17.75 14.5858 17.75 15V18C17.75 18.7293 17.4603 19.4288 16.9445 19.9445C16.4288 20.4603 15.7293 20.75 15 20.75H6C5.27065 20.75 4.57118 20.4603 4.05546 19.9445C3.53973 19.4288 3.25 18.7293 3.25 18V9C3.25 8.27065 3.53973 7.57118 4.05546 7.05546Z" fill="black"/>
</svg>
