<svg width="235" height="72" viewBox="0 0 235 72" fill="none" xmlns="http://www.w3.org/2000/svg">
<path d="M14.4663 5.14899H31.1882V70.949H14.4663V5.14899ZM7.02576 21.3493C7.02576 21.3493 19.3403 32.6467 23.4365 34.6442C27.5327 36.6417 33.7677 38.7818 36.6843 38.8856C40.3398 39.0283 44.7601 38.1333 46.7563 36.3304C48.7396 34.5404 49.7377 31.9334 49.7377 28.535V28.4443C49.7377 25.007 48.7396 22.4129 46.7563 20.6489C44.7601 18.8849 41.7009 17.4581 38.4861 18.0029C32.964 18.9368 25.1346 24.5401 25.1346 24.5401L20.2477 13.7615C20.2477 13.7615 30.903 5.36949 42.5046 5.14899C47.5341 5.05819 51.6432 6.10881 55.2598 8.04144C58.8764 9.97406 61.6763 12.672 63.6726 16.1611C65.6559 19.6372 66.654 23.7359 66.654 28.4443V28.535C66.654 33.2174 65.6559 37.3032 63.6726 40.7793C61.6763 44.2555 58.8764 46.9533 55.2598 48.8471C51.6432 50.7408 44.5397 51.986 39.8861 51.986C34.1177 51.986 25.355 50.8316 18.7051 47.2128C10.7072 42.8806 0 31.8166 0 31.8166L7.02576 21.3493Z" fill="#FE8422"/>
<path d="M78.2424 68.9518C74.4443 66.9154 71.5148 63.9711 69.4667 60.1058C67.4186 56.2406 66.3945 51.5971 66.3945 46.1494V46.0586C66.3945 40.7147 67.4445 36.0972 69.5445 32.219C71.6444 28.3407 74.5869 25.3834 78.385 23.3211C82.183 21.2718 86.6552 20.2471 91.7884 20.2471C96.9216 20.2471 101.433 21.2718 105.231 23.3211C109.029 25.3705 111.971 28.3278 114.071 32.1671C116.171 36.0194 117.221 40.6369 117.221 46.0586V46.1494C117.221 51.623 116.184 56.2925 114.123 60.1447C112.062 64.01 109.132 66.9414 105.347 68.9648C101.562 70.9882 97.0512 71.9999 91.7884 71.9999C86.5255 71.9999 82.0534 70.9752 78.2554 68.9388L78.2424 68.9518ZM96.6105 58.1602C97.9456 57.1096 98.9697 55.5661 99.6826 53.5297C100.396 51.4933 100.759 49.0289 100.759 46.1494V46.0586C100.759 43.2051 100.383 40.7666 99.6437 38.7432C98.9049 36.7198 97.8549 35.1763 96.5197 34.1127C95.1846 33.0491 93.6031 32.5173 91.7754 32.5173C89.9477 32.5173 88.4051 33.0491 87.057 34.1127C85.7089 35.1763 84.6589 36.7198 83.9071 38.7432C83.1682 40.7666 82.7923 43.2051 82.7923 46.0586V46.1494C82.7923 49.0419 83.1552 51.5063 83.8812 53.5297C84.6071 55.5661 85.657 57.1096 87.0052 58.1602C88.3533 59.2109 89.9606 59.7297 91.8143 59.7297C93.668 59.7297 95.2624 59.2109 96.5975 58.1602H96.6105Z" fill="#FE8422"/>
<path d="M182.644 15.9539C184.977 15.9539 186.948 15.1627 188.529 13.5803C190.11 11.9978 190.901 10.1301 190.901 7.97694C190.901 5.82382 190.11 3.91713 188.529 2.34769C186.948 0.778238 184.99 0 182.644 0C180.298 0 178.379 0.778238 176.785 2.34769C175.19 3.91713 174.387 5.7849 174.387 7.97694C174.387 10.169 175.19 12.0108 176.785 13.5803C178.379 15.1627 180.337 15.9539 182.644 15.9539Z" fill="#FE8422"/>
<path d="M230.165 33.1526V21.2974H222.79C222.79 17.4841 222.79 13.6707 222.79 9.85733H207.999V21.2974C205.757 21.2974 203.501 21.2974 201.259 21.2974V33.1526C203.501 33.1526 205.744 33.1526 207.986 33.1526C208.129 37.7183 208.064 42.2839 207.792 46.8366C207.714 48.2504 207.597 49.7031 206.962 50.9613C205.601 53.6721 202.231 54.7228 199.198 54.7228C196.437 54.7228 193.352 53.8408 192.003 51.4282C191.277 50.1441 191.174 48.6136 191.083 47.1349C190.85 43.0492 190.746 38.9634 190.772 34.8647C190.772 30.338 190.772 25.8112 190.772 21.2845C185.379 21.2845 179.987 21.2845 174.595 21.2845C174.595 29.5468 174.595 37.822 174.595 46.0843C174.595 47.5759 174.595 49.1324 173.972 50.4943C173.324 51.947 172.041 53.0625 170.628 53.7759C166.934 55.6437 162.28 55.0081 158.845 52.6993C155.41 50.3906 153.167 46.5902 152.117 42.5822C157.951 35.4873 163.784 28.3794 169.617 21.2845C164.419 21.2845 159.221 21.2585 154.036 21.2455C153.258 21.2455 152.441 21.2455 151.767 21.6217C151.223 21.92 150.821 22.4388 150.432 22.9317C145.999 28.6777 141.579 34.4367 137.145 40.1827C137.12 28.4961 137.094 16.8096 137.068 5.12305C131.701 5.12305 126.322 5.12305 120.955 5.12305C120.955 20.6748 120.955 36.2396 120.955 51.7914C120.955 57.706 120.955 63.6076 120.955 69.5222C120.955 70.3005 120.761 70.6637 121.409 70.9231C121.979 71.1566 123.133 70.9231 123.755 70.9231H128.188C128.927 70.9231 137.068 70.9231 137.068 70.9231C137.068 67.5377 136.912 61.5323 137.016 58.2378C137.12 54.9433 138.299 53.5035 140.101 52.1027C142.343 60.806 149.564 68.0436 158.262 70.3005C166.96 72.5574 176.785 69.7168 182.955 63.1796C186.857 68.0177 193.014 70.949 199.237 70.9231C205.459 70.8971 211.59 67.9139 215.44 63.0369C218.24 65.3846 221.079 67.7453 224.371 69.3018C227.664 70.8582 231.54 71.5327 234.988 70.3653L234.923 53.6462C232.434 55.9939 228.104 55.2805 225.706 52.842C223.308 50.4035 222.453 46.7977 222.453 43.3735C222.453 39.9492 222.453 36.5509 222.453 33.1266C224.89 33.1266 227.703 33.1266 230.153 33.1266L230.165 33.1526Z" fill="#FE8422"/>
</svg>
