<svg width="24" height="24" viewBox="0 0 24 24" fill="none" xmlns="http://www.w3.org/2000/svg">
<path fill-rule="evenodd" clip-rule="evenodd" d="M2.25 7C2.25 5.48122 3.48122 4.25 5 4.25H11C11.1989 4.25 11.3897 4.32902 11.5303 4.46967L13.3107 6.25H19C20.5188 6.25 21.75 7.48122 21.75 9V17C21.75 18.5188 20.5188 19.75 19 19.75H5C3.48122 19.75 2.25 18.5188 2.25 17V7ZM5 5.75C4.30964 5.75 3.75 6.30964 3.75 7V17C3.75 17.6904 4.30964 18.25 5 18.25H19C19.6904 18.25 20.25 17.6904 20.25 17V9C20.25 8.30964 19.6904 7.75 19 7.75H13C12.8011 7.75 12.6103 7.67098 12.4697 7.53033L10.6893 5.75H5Z" fill="black"/>
</svg>
