<svg width="24" height="24" viewBox="0 0 24 24" fill="none" xmlns="http://www.w3.org/2000/svg">
<path d="M12.7437 12C13.9863 12 14.9937 13.0074 14.9937 14.25L14.9925 15.3726C15.1468 18.1273 13.025 19.5012 9.09029 19.5012C5.16828 19.5012 3 18.1453 3 15.4119V14.25C3 13.0074 4.00735 12 5.25 12H12.7437ZM18.7446 12C19.9872 12 20.9946 13.0074 20.9946 14.25L20.9934 15.0399C21.1292 17.511 19.2543 18.75 15.8274 18.75C15.3623 18.75 14.9249 18.7274 14.5165 18.6821C15.3216 17.9385 15.7522 16.9297 15.7507 15.6549L15.7413 15.3306L15.7437 14.25C15.7437 13.3536 15.3505 12.5491 14.7273 11.9994L18.7446 12ZM9 3C11.0714 3 12.7506 4.67921 12.7506 6.7506C12.7506 8.82201 11.0714 10.5012 9 10.5012C6.92859 10.5012 5.24938 8.82201 5.24938 6.7506C5.24938 4.67921 6.92859 3 9 3ZM16.5 4.5C18.1569 4.5 19.5 5.84314 19.5 7.5C19.5 9.15686 18.1569 10.5 16.5 10.5C14.8431 10.5 13.5 9.15686 13.5 7.5C13.5 5.84314 14.8431 4.5 16.5 4.5Z" fill="black"/>
</svg>
