<svg width="24" height="24" viewBox="0 0 24 24" fill="none" xmlns="http://www.w3.org/2000/svg">
<path fill-rule="evenodd" clip-rule="evenodd" d="M15 2.25C15.4142 2.25 15.75 2.58579 15.75 3V4.25H17C17.7293 4.25 18.4288 4.53973 18.9445 5.05546C19.4603 5.57118 19.75 6.27065 19.75 7V11C19.75 11.4142 19.4142 11.75 19 11.75H3.75V19C3.75 19.3315 3.8817 19.6495 4.11612 19.8839C4.35054 20.1183 4.66848 20.25 5 20.25H11.795C12.2092 20.25 12.545 20.5858 12.545 21C12.545 21.4142 12.2092 21.75 11.795 21.75H5C4.27065 21.75 3.57118 21.4603 3.05546 20.9445C2.53973 20.4288 2.25 19.7293 2.25 19V11V7C2.25 6.27065 2.53973 5.57118 3.05546 5.05546C3.57118 4.53973 4.27065 4.25 5 4.25H6.25V3C6.25 2.58579 6.58579 2.25 7 2.25C7.41421 2.25 7.75 2.58579 7.75 3V4.25H14.25V3C14.25 2.58579 14.5858 2.25 15 2.25ZM18.25 7V10.25H3.75V7C3.75 6.66848 3.8817 6.35054 4.11612 6.11612C4.35054 5.8817 4.66848 5.75 5 5.75H6.25V7C6.25 7.41421 6.58579 7.75 7 7.75C7.41421 7.75 7.75 7.41421 7.75 7V5.75H14.25V7C14.25 7.41421 14.5858 7.75 15 7.75C15.4142 7.75 15.75 7.41421 15.75 7V5.75H17C17.3315 5.75 17.6495 5.8817 17.8839 6.11612C18.1183 6.35054 18.25 6.66848 18.25 7ZM14.75 18C14.75 16.2051 16.2051 14.75 18 14.75C19.7949 14.75 21.25 16.2051 21.25 18C21.25 19.7949 19.7949 21.25 18 21.25C16.2051 21.25 14.75 19.7949 14.75 18ZM18 13.25C15.3766 13.25 13.25 15.3766 13.25 18C13.25 20.6234 15.3766 22.75 18 22.75C20.6234 22.75 22.75 20.6234 22.75 18C22.75 15.3766 20.6234 13.25 18 13.25ZM18.75 16.496C18.75 16.0818 18.4142 15.746 18 15.746C17.5858 15.746 17.25 16.0818 17.25 16.496V18C17.25 18.1989 17.329 18.3897 17.4697 18.5303L18.4697 19.5303C18.7626 19.8232 19.2374 19.8232 19.5303 19.5303C19.8232 19.2374 19.8232 18.7626 19.5303 18.4697L18.75 17.6893V16.496Z" fill="black"/>
</svg>
