<svg width="24" height="24" viewBox="0 0 24 24" fill="none" xmlns="http://www.w3.org/2000/svg">
<path fill-rule="evenodd" clip-rule="evenodd" d="M12.2378 3.15887C12.1629 2.92849 11.837 2.92849 11.7622 3.15887L10.2436 7.83259C10.0094 8.55363 9.33742 9.04181 8.57929 9.04181H3.66499C3.42277 9.04181 3.32217 9.35173 3.51804 9.49402L3.51806 9.49404L7.49375 12.3826C7.49377 12.3826 7.49378 12.3826 7.4938 12.3826C8.10717 12.8282 8.36378 13.6182 8.12952 14.3392L6.61092 19.013C6.5361 19.2432 6.79966 19.4348 6.99563 19.2924L7.43646 19.8992L6.99563 19.2924L10.9713 16.404C10.9713 16.404 10.9713 16.4039 10.9714 16.4039C11.5847 15.9583 12.4153 15.9583 13.0286 16.4039C13.0287 16.4039 13.0287 16.404 13.0287 16.404L17.0043 19.2924L16.5635 19.8992L17.0043 19.2924C17.2003 19.4348 17.4639 19.2433 17.3891 19.013C17.3891 19.013 17.3891 19.0129 17.3891 19.0129L15.8705 14.3392C15.6362 13.6183 15.8927 12.8282 16.5062 12.3826L20.482 9.49404L20.9143 10.0891L20.482 9.49403C20.6778 9.35175 20.5772 9.04181 20.335 9.04181H15.4207C14.6627 9.04181 13.9906 8.55372 13.7564 7.83259C13.7564 7.83256 13.7564 7.83252 13.7564 7.83248L12.2378 3.15887ZM10.3356 2.69527C10.8595 1.08303 13.1404 1.08303 13.6644 2.69527L13.6644 2.69531L15.183 7.36907L15.183 7.36918C15.2164 7.47204 15.3124 7.54181 15.4207 7.54181H20.335C22.0302 7.54181 22.7352 9.71111 21.3636 10.7076L17.3878 13.5962L17.3878 13.5962C17.3003 13.6598 17.2636 13.7725 17.2971 13.8756L17.2971 13.8756L18.8157 18.5494L18.8157 18.5495C19.3395 20.1618 17.4941 21.5024 16.1227 20.506L12.147 17.6175L12.1469 17.6174C12.0593 17.5538 11.9407 17.5538 11.8531 17.6174L11.853 17.6175L7.8773 20.506C6.50585 21.5024 4.66045 20.1618 5.18433 18.5494L6.70293 13.8756L7.41622 14.1074L6.70293 13.8756C6.7364 13.7726 6.69971 13.6598 6.61216 13.5962L6.61211 13.5962L2.63639 10.7076C2.63639 10.7076 2.63638 10.7076 2.63637 10.7076C1.26483 9.71111 1.96979 7.54181 3.66499 7.54181H8.57929C8.68759 7.54181 8.78358 7.47207 8.81704 7.36907L10.3356 2.69531L10.3356 2.69527Z" fill="black"/>
</svg>
