<svg width="24" height="24" viewBox="0 0 24 24" fill="none" xmlns="http://www.w3.org/2000/svg">
<path fill-rule="evenodd" clip-rule="evenodd" d="M6.5636 6.56361C6.91507 6.21214 7.48492 6.21214 7.8364 6.56361L12 10.7272L16.1636 6.56361C16.5151 6.21214 17.0849 6.21214 17.4364 6.56361C17.7879 6.91508 17.7879 7.48493 17.4364 7.8364L13.2728 12L17.4364 16.1636C17.7879 16.5151 17.7879 17.0849 17.4364 17.4364C17.0849 17.7879 16.5151 17.7879 16.1636 17.4364L12 13.2728L7.8364 17.4364C7.48492 17.7879 6.91507 17.7879 6.5636 17.4364C6.21213 17.0849 6.21213 16.5151 6.5636 16.1636L10.7272 12L6.5636 7.8364C6.21213 7.48493 6.21213 6.91508 6.5636 6.56361Z" fill="black"/>
</svg>
