<svg width="24" height="24" viewBox="0 0 24 24" fill="none" xmlns="http://www.w3.org/2000/svg">
<path fill-rule="evenodd" clip-rule="evenodd" d="M15.103 5.50295C16.0402 4.56569 17.5597 4.56569 18.497 5.50295C19.4342 6.44019 19.4342 7.95979 18.497 8.89705L14.897 12.497C13.9597 13.4344 12.4402 13.4344 11.5029 12.497C11.0343 12.0284 10.2745 12.0284 9.80588 12.497C9.33724 12.9656 9.33724 13.7255 9.80588 14.1941C11.6804 16.0686 14.7196 16.0686 16.5941 14.1941L20.1941 10.5941C22.0686 8.71959 22.0686 5.6804 20.1941 3.80588C18.3196 1.93137 15.2804 1.93137 13.4059 3.80588L11.6059 5.60588C11.1372 6.07452 11.1372 6.83431 11.6059 7.30295C12.0745 7.77157 12.8342 7.77157 13.303 7.30295L15.103 5.50295ZM9.10295 11.5029C10.0402 10.5657 11.5598 10.5657 12.497 11.5029C12.9656 11.9716 13.7255 11.9716 14.1941 11.5029C14.6628 11.0343 14.6628 10.2745 14.1941 9.80588C12.3196 7.93137 9.28041 7.93137 7.40589 9.80588L3.80589 13.4059C1.93138 15.2804 1.93138 18.3196 3.80589 20.1941C5.68041 22.0686 8.7196 22.0686 10.5941 20.1941L12.3941 18.3941C12.8628 17.9255 12.8628 17.1656 12.3941 16.697C11.9255 16.2284 11.1657 16.2284 10.6971 16.697L8.89706 18.497C7.9598 19.4344 6.44021 19.4344 5.50295 18.497C4.56569 17.5598 4.56569 16.0402 5.50295 15.103L9.10295 11.5029Z" fill="black"/>
</svg>
