<svg width="24" height="24" viewBox="0 0 24 24" fill="none" xmlns="http://www.w3.org/2000/svg">
<path fill-rule="evenodd" clip-rule="evenodd" d="M9.25506 4.83172C9.342 3.39131 10.5377 2.25 12 2.25C13.4623 2.25 14.658 3.39131 14.7449 4.83172C17.1041 5.88311 18.75 8.2485 18.75 11V14.1585C18.75 14.4984 18.885 14.8244 19.1254 15.0648L20.5303 16.4697C20.7448 16.6842 20.809 17.0068 20.6929 17.287C20.5768 17.5673 20.3033 17.75 20 17.75H15.75V18C15.75 20.0711 14.0711 21.75 12 21.75C9.92888 21.75 8.24999 20.0711 8.24999 18V17.75H3.99999C3.69664 17.75 3.42317 17.5673 3.30708 17.287C3.191 17.0068 3.25517 16.6842 3.46967 16.4697L4.8746 15.0648C5.11494 14.8244 5.24999 14.4984 5.24999 14.1585V11C5.24999 8.24849 6.89595 5.88311 9.25506 4.83172ZM9.74999 17.75V18C9.74999 19.2427 10.7573 20.25 12 20.25C13.2427 20.25 14.25 19.2427 14.25 18V17.75H9.74999ZM12 3.75C11.3096 3.75 10.75 4.30964 10.75 5V5.34142C10.75 5.65928 10.5496 5.94262 10.2499 6.04855C8.20983 6.76962 6.74999 8.7153 6.74999 11V14.1585C6.74999 14.8962 6.45693 15.6038 5.93524 16.1254L5.81068 16.25H18.1893L18.0648 16.1254C17.5431 15.6038 17.25 14.8962 17.25 14.1585V11C17.25 8.71529 15.7902 6.76962 13.7501 6.04855C13.4504 5.94263 13.25 5.65928 13.25 5.34142V5C13.25 4.30964 12.6904 3.75 12 3.75Z" fill="black"/>
</svg>
