<svg width="24" height="24" viewBox="0 0 24 24" fill="none" xmlns="http://www.w3.org/2000/svg">
<path fill-rule="evenodd" clip-rule="evenodd" d="M8.25 4C8.25 3.03351 9.03351 2.25 10 2.25H14C14.9665 2.25 15.75 3.03352 15.75 4V6.25H18.9923C18.9969 6.24996 19.0015 6.24996 19.0062 6.25H20C20.4142 6.25 20.75 6.58579 20.75 7C20.75 7.41421 20.4142 7.75 20 7.75H19.6983L18.8808 19.1959C18.7779 20.635 17.5805 21.75 16.1378 21.75H7.86224C6.41948 21.75 5.22202 20.635 5.11923 19.1959L4.30166 7.75H4C3.58579 7.75 3.25 7.41421 3.25 7C3.25 6.58579 3.58579 6.25 4 6.25H4.9938C4.99846 6.24996 5.00311 6.24996 5.00775 6.25H8.25V4ZM5.80548 7.75L6.61541 19.0891C6.66214 19.7432 7.20644 20.25 7.86224 20.25H16.1378C16.7935 20.25 17.3378 19.7432 17.3846 19.0891C17.3846 19.0891 17.3846 19.0891 17.3846 19.0891L18.1945 7.75H5.80548ZM14.25 6.25H9.75V4C9.75 3.86193 9.86193 3.75 10 3.75H14C14.1381 3.75 14.25 3.86192 14.25 4V6.25ZM10 10.25C10.4142 10.25 10.75 10.5858 10.75 11V17C10.75 17.4142 10.4142 17.75 10 17.75C9.58579 17.75 9.25 17.4142 9.25 17V11C9.25 10.5858 9.58579 10.25 10 10.25ZM14 10.25C14.4142 10.25 14.75 10.5858 14.75 11V17C14.75 17.4142 14.4142 17.75 14 17.75C13.5858 17.75 13.25 17.4142 13.25 17V11C13.25 10.5858 13.5858 10.25 14 10.25Z" fill="black"/>
</svg>
