<svg width="24" height="24" viewBox="0 0 24 24" fill="none" xmlns="http://www.w3.org/2000/svg">
<path fill-rule="evenodd" clip-rule="evenodd" d="M14.25 6C14.25 3.92894 15.9289 2.25 18 2.25C20.0711 2.25 21.75 3.92894 21.75 6C21.75 8.07106 20.0711 9.75 18 9.75C16.8013 9.75 15.735 9.18751 15.049 8.314L9.62243 11.0273C9.70567 11.3379 9.75 11.6641 9.75 12C9.75 12.3359 9.70567 12.6621 9.62243 12.9727L15.049 15.686C15.735 14.8125 16.8013 14.25 18 14.25C20.0711 14.25 21.75 15.9289 21.75 18C21.75 20.0711 20.0711 21.75 18 21.75C15.9289 21.75 14.25 20.0711 14.25 18C14.25 17.6641 14.2943 17.338 14.3775 17.0273L8.95097 14.314C8.26504 15.1875 7.19865 15.75 6 15.75C3.92894 15.75 2.25 14.0711 2.25 12C2.25 9.92888 3.92894 8.25 6 8.25C7.19866 8.25 8.26504 8.81247 8.95097 9.68602L14.3776 6.97268C14.2943 6.66204 14.25 6.33585 14.25 6ZM15.9866 7.00596C16.357 7.74521 17.1202 8.25 18 8.25C19.2427 8.25 20.25 7.24264 20.25 6C20.25 4.75736 19.2427 3.75 18 3.75C16.7573 3.75 15.75 4.75736 15.75 6C15.75 6.36317 15.8354 6.70416 15.9866 7.00596ZM15.9866 16.9941C15.8354 17.2959 15.75 17.6368 15.75 18C15.75 19.2427 16.7573 20.25 18 20.25C19.2427 20.25 20.25 19.2427 20.25 18C20.25 16.7573 19.2427 15.75 18 15.75C17.1202 15.75 16.357 16.2548 15.9866 16.9941ZM6 9.75C4.75736 9.75 3.75 10.7573 3.75 12C3.75 13.2427 4.75736 14.25 6 14.25C6.87978 14.25 7.64299 13.7452 8.0133 13.006L8.01331 13.006C8.16455 12.7041 8.25 12.3631 8.25 12C8.25 11.6369 8.16455 11.2959 8.01331 10.994L8.01331 10.994C7.64299 10.2548 6.87977 9.75 6 9.75Z" fill="black"/>
</svg>
