<svg width="24" height="24" viewBox="0 0 24 24" fill="none" xmlns="http://www.w3.org/2000/svg">
<path fill-rule="evenodd" clip-rule="evenodd" d="M4.25 4C4.25 3.58579 4.58579 3.25 5 3.25H18.865C20.3486 3.25 21.1593 4.98047 20.2094 6.12032C20.2094 6.12033 20.2094 6.12031 20.2094 6.12032L16.9763 10L20.2093 13.8796C20.2093 13.8796 20.2094 13.8796 20.2093 13.8796C21.1593 15.0195 20.3486 16.75 18.865 16.75H5.75V22C5.75 22.4142 5.41421 22.75 5 22.75C4.58579 22.75 4.25 22.4142 4.25 22V4ZM5.75 15.25H18.865C19.077 15.25 19.1927 15.0027 19.0571 14.84L15.4238 10.4801C15.1921 10.202 15.1921 9.798 15.4238 9.51986L19.057 5.16004C19.1927 4.99725 19.077 4.75 18.865 4.75H5.75V15.25Z" fill="black"/>
</svg>
