<svg width="77" height="76" viewBox="0 0 77 76" fill="none" xmlns="http://www.w3.org/2000/svg">
<g clip-path="url(#clip0_5923_23697)">
<path d="M0.5 38C0.5 17.0132 17.5132 0 38.5 0C59.4868 0 76.5 17.0132 76.5 38C76.5 58.9868 59.4868 76 38.5 76C17.5132 76 0.5 58.9868 0.5 38Z" fill="#D9D9D9"/>
<path d="M39.4496 42.75C42.7883 42.75 46.052 41.775 48.8281 39.9482C51.6041 38.1214 53.7677 35.5249 55.0454 32.4871C56.3231 29.4493 56.6574 26.1066 56.006 22.8816C55.3547 19.6567 53.7469 16.6944 51.3861 14.3694C49.0253 12.0443 46.0174 10.4609 42.7429 9.81945C39.4683 9.17797 36.0742 9.5072 32.9896 10.7655C29.9051 12.0238 27.2686 14.1547 25.4138 16.8887C23.5589 19.6226 22.5688 22.8369 22.5688 26.125C22.5688 30.5342 24.3473 34.7629 27.5131 37.8807C30.6789 40.9984 34.9726 42.75 39.4496 42.75ZM39.4496 47.5C28.9865 47.5 8.09961 53.865 8.09961 66.5V76H70.7996V66.5C70.7996 53.865 49.9127 47.5 39.4496 47.5Z" fill="white"/>
</g>
<path d="M1.45 38C1.45 17.5378 18.0378 0.95 38.5 0.95C58.9622 0.95 75.55 17.5378 75.55 38C75.55 58.4622 58.9622 75.05 38.5 75.05C18.0378 75.05 1.45 58.4622 1.45 38Z" stroke="#D9D9D9" stroke-width="1.9"/>
<defs>
<clipPath id="clip0_5923_23697">
<path d="M0.5 38C0.5 17.0132 17.5132 0 38.5 0C59.4868 0 76.5 17.0132 76.5 38C76.5 58.9868 59.4868 76 38.5 76C17.5132 76 0.5 58.9868 0.5 38Z" fill="white"/>
</clipPath>
</defs>
</svg>
