<svg width="24" height="24" viewBox="0 0 24 24" fill="none" xmlns="http://www.w3.org/2000/svg">
<path fill-rule="evenodd" clip-rule="evenodd" d="M12.3333 4.75C8.14517 4.75 4.75 8.14517 4.75 12.3333C4.75 16.5215 8.14517 19.9167 12.3333 19.9167C16.5215 19.9167 19.9167 16.5215 19.9167 12.3333C19.9167 8.14517 16.5215 4.75 12.3333 4.75ZM3.25 12.3333C3.25 7.31675 7.31675 3.25 12.3333 3.25C17.3499 3.25 21.4167 7.31675 21.4167 12.3333C21.4167 17.3499 17.3499 21.4167 12.3333 21.4167C7.31675 21.4167 3.25 17.3499 3.25 12.3333ZM12.3333 11.5833C12.7475 11.5833 13.0833 11.9191 13.0833 12.3333V16.3333C13.0833 16.7475 12.7475 17.0833 12.3333 17.0833C11.9191 17.0833 11.5833 16.7475 11.5833 16.3333V12.3333C11.5833 11.9191 11.9191 11.5833 12.3333 11.5833ZM12.3333 8.25C11.9191 8.25 11.5833 8.58579 11.5833 9C11.5833 9.41421 11.9191 9.75 12.3333 9.75H12.3334C12.7476 9.75 13.0834 9.41421 13.0834 9C13.0834 8.58579 12.7476 8.25 12.3334 8.25H12.3333Z" fill="black"/>
</svg>
