<svg width="24" height="24" viewBox="0 0 24 24" fill="none" xmlns="http://www.w3.org/2000/svg">
<path fill-rule="evenodd" clip-rule="evenodd" d="M6 1.25C4.48122 1.25 3.25 2.48122 3.25 4V20C3.25 21.5188 4.48122 22.75 6 22.75H18C19.5188 22.75 20.75 21.5188 20.75 20V8.34162C20.75 7.60159 20.4518 6.89273 19.9225 6.37531L15.4822 2.03373C14.9684 1.53133 14.2784 1.25 13.5597 1.25H6ZM4.75 4C4.75 3.30964 5.30964 2.75 6 2.75H13.25V6C13.25 7.51878 14.4812 8.75 16 8.75H19.25V20C19.25 20.6904 18.6904 21.25 18 21.25H6C5.30964 21.25 4.75 20.6904 4.75 20V4ZM18.6715 7.25L14.75 3.41565V6C14.75 6.69036 15.3096 7.25 16 7.25H18.6715Z" fill="#262626"/>
</svg>
