<svg width="24" height="24" viewBox="0 0 24 24" fill="none" xmlns="http://www.w3.org/2000/svg">
<path fill-rule="evenodd" clip-rule="evenodd" d="M4 3.25C2.48579 3.25 1.25 4.48579 1.25 6V18C1.25 19.5142 2.48579 20.75 4 20.75H20C21.5142 20.75 22.75 19.5142 22.75 18V8C22.75 6.48579 21.5142 5.25 20 5.25H12.3107L11.1203 4.05967C10.5999 3.53921 9.89918 3.25 9.17 3.25H4ZM2.75 6C2.75 5.31421 3.31421 4.75 4 4.75H9.17C9.50082 4.75 9.82013 4.88079 10.0597 5.12033L11.6893 6.75H20C20.6858 6.75 21.25 7.31421 21.25 8V18C21.25 18.6858 20.6858 19.25 20 19.25H4C3.31421 19.25 2.75 18.6858 2.75 18V6ZM12.75 10C12.75 9.58579 12.4142 9.25 12 9.25C11.5858 9.25 11.25 9.58579 11.25 10V12.4643H9C8.58579 12.4643 8.25 12.8001 8.25 13.2143C8.25 13.6285 8.58579 13.9643 9 13.9643H11.25V16.4286C11.25 16.8428 11.5858 17.1786 12 17.1786C12.4142 17.1786 12.75 16.8428 12.75 16.4286V13.9643H15C15.4142 13.9643 15.75 13.6285 15.75 13.2143C15.75 12.8001 15.4142 12.4643 15 12.4643H12.75V10Z" fill="black"/>
</svg>
