<svg width="24" height="24" viewBox="0 0 24 24" fill="none" xmlns="http://www.w3.org/2000/svg">
<path fill-rule="evenodd" clip-rule="evenodd" d="M11.7071 4.70711C11.5196 4.89464 11.2652 5 11 5C10.7348 5 10.4804 4.89464 10.2929 4.70711C10.1054 4.51957 10 4.26522 10 4V2C10 1.73478 10.1054 1.48043 10.2929 1.29289C10.4804 1.10536 10.7348 1 11 1C11.2652 1 11.5196 1.10536 11.7071 1.29289C11.8946 1.48043 12 1.73478 12 2V4C12 4.26522 11.8946 4.51957 11.7071 4.70711ZM20.8425 5.15751C18.9658 3.28083 15.9231 3.28083 14.0464 5.15751L14.0464 5.15752L13.069 6.13495C12.5809 6.62311 12.5809 7.41456 13.069 7.90271C13.5572 8.39087 14.3486 8.39086 14.8368 7.90271L15.8142 6.92528L15.8142 6.92527C16.7146 6.02491 18.1743 6.02491 19.0747 6.92528C19.9751 7.82566 19.9751 9.28546 19.0747 10.1858L15.5192 13.7414L16.403 14.6253L15.5192 13.7414C14.6188 14.6418 13.159 14.6418 12.2586 13.7414C11.7705 13.2532 10.979 13.2532 10.4909 13.7414C10.0027 14.2295 10.0027 15.021 10.4909 15.5091C12.3676 17.3858 15.4102 17.3858 17.2869 15.5091L20.8425 11.9536L19.9586 11.0697L20.8425 11.9536C22.7192 10.0769 22.7192 7.0342 20.8425 5.15751L19.9609 6.03909L20.8425 5.15751ZM15.5091 10.4909C13.6325 8.61417 10.5898 8.61417 8.71307 10.4909L8.71307 10.4909L5.15751 14.0464L6.03326 14.9222L5.15751 14.0464C3.28083 15.9231 3.28083 18.9658 5.15751 20.8425L6.03909 19.9609L5.15751 20.8425C7.03419 22.7192 10.0769 22.7192 11.9536 20.8425L11.9536 20.8425L12.9328 19.8634C13.4209 19.3753 13.4209 18.5838 12.9328 18.0956C12.4447 17.6075 11.6532 17.6074 11.165 18.0956L10.1859 19.0747L10.1858 19.0747C9.28546 19.9751 7.82566 19.9751 6.92528 19.0747C6.02491 18.1743 6.02491 16.7146 6.92528 15.8142L10.4808 12.2586L10.4808 12.2586C11.3812 11.3583 12.841 11.3583 13.7414 12.2586C14.2295 12.7468 15.021 12.7468 15.5091 12.2587C15.9973 11.7705 15.9973 10.979 15.5091 10.4909ZM5 11C5 10.7348 4.89464 10.4804 4.70711 10.2929C4.51957 10.1054 4.26522 10 4 10H2C1.73478 10 1.48043 10.1054 1.29289 10.2929C1.10536 10.4804 1 10.7348 1 11C1 11.2652 1.10536 11.5196 1.29289 11.7071C1.48043 11.8946 1.73478 12 2 12H4C4.26522 12 4.51957 11.8946 4.70711 11.7071C4.89464 11.5196 5 11.2652 5 11ZM4.49695 3.72378C4.76512 3.71628 5.0253 3.81562 5.22023 3.99995L6.72023 5.41995C6.90648 5.60731 7.01102 5.86076 7.01102 6.12495C7.01102 6.38913 6.90648 6.64258 6.72023 6.82995C6.62728 6.92745 6.5156 7.00517 6.39187 7.05844C6.26815 7.11171 6.13494 7.13943 6.00023 7.13995C5.86598 7.1447 5.73215 7.12235 5.60673 7.07425C5.48131 7.02614 5.36687 6.95326 5.27023 6.85995L3.83023 5.46995C3.6353 5.28562 3.52157 5.03141 3.51407 4.76323C3.50657 4.49505 3.60591 4.23488 3.79023 4.03995C3.97456 3.84501 4.22877 3.73129 4.49695 3.72378Z" fill="black"/>
</svg>
