<svg width="24" height="24" viewBox="0 0 24 24" fill="none" xmlns="http://www.w3.org/2000/svg">
<path fill-rule="evenodd" clip-rule="evenodd" d="M9.25004 11.698C11.5281 11.698 13.3749 9.85127 13.3749 7.57319C13.3749 5.2951 11.5281 3.44833 9.25004 3.44833C6.97195 3.44833 5.12518 5.2951 5.12518 7.57319C5.12518 9.85127 6.97195 11.698 9.25004 11.698ZM9.25048 13.3023C13.8067 13.3023 17.5002 16.9958 17.5002 21.552H1.00078C1.00078 16.9958 4.6943 13.3023 9.25048 13.3023ZM19.8751 6.42751C20.6345 6.42751 21.2501 7.0431 21.2501 7.80246V9.17741H22.625C23.3844 9.17741 24 9.793 24 10.5524C24 11.3117 23.3844 11.9273 22.625 11.9273H21.2501V13.3023C21.2501 14.0616 20.6345 14.6772 19.8751 14.6772C19.1158 14.6772 18.5002 14.0616 18.5002 13.3023V11.9273H17.1252C16.3659 11.9273 15.7503 11.3117 15.7503 10.5524C15.7503 9.79299 16.3659 9.17741 17.1252 9.17741H18.5002V7.80246C18.5002 7.0431 19.1158 6.42751 19.8751 6.42751Z" fill="black"/>
</svg>
