<svg width="24" height="24" viewBox="0 0 24 24" fill="none" xmlns="http://www.w3.org/2000/svg">
<path d="M15.0884 3.66802C14.0205 2.5963 12.2205 2.86281 11.5089 4.19796L8.4789 9.88353L4.26285 11.2889C4.01625 11.3711 3.8298 11.5751 3.77009 11.8281C3.71036 12.0811 3.78588 12.3469 3.96969 12.5307L7.18931 15.7503L3.21955 19.7201L3 21.0005L4.28022 20.7807L8.24997 16.811L11.4697 20.0307C11.6535 20.2146 11.9193 20.2901 12.1723 20.2304C12.4253 20.1707 12.6293 19.9842 12.7115 19.7376L14.1171 15.5208L19.7845 12.4867C21.1138 11.7751 21.3807 9.98302 20.3165 8.91495L15.0884 3.66802Z" fill="black"/>
</svg>
