<svg width="24" height="24" viewBox="0 0 24 24" fill="none" xmlns="http://www.w3.org/2000/svg">
<path d="M20 2H8C6.897 2 6 2.897 6 4V16C6 17.103 6.897 18 8 18H20C21.103 18 22 17.103 22 16V4C22 2.897 21.103 2 20 2ZM8 16V4H20L20.002 16H8Z" fill="black"/>
<path d="M4 8H2V20C2 21.103 2.897 22 4 22H16V20H4V8Z" fill="black"/>
<path d="M16.1213 6.46447L17.5355 7.87868L15.4142 10L17.5355 12.1213L16.1213 13.5355L14 11.4142L11.8787 13.5355L10.4645 12.1213L12.5858 10L10.4645 7.87868L11.8787 6.46447L14 8.58579L16.1213 6.46447Z" fill="black"/>
</svg>
