<svg width="25" height="24" viewBox="0 0 25 24" fill="none" xmlns="http://www.w3.org/2000/svg">
<path d="M15.5884 3.66802C14.5205 2.5963 12.7205 2.86281 12.0089 4.19796L8.9789 9.88353L4.76285 11.2889C4.51625 11.3711 4.3298 11.5751 4.27009 11.8281C4.21036 12.0811 4.28588 12.3469 4.46969 12.5307L7.68931 15.7503L3.71955 19.7201L3.5 21.0005L4.78022 20.7807L8.74997 16.811L11.9697 20.0307C12.1535 20.2146 12.4193 20.2901 12.6723 20.2304C12.9253 20.1707 13.1293 19.9842 13.2115 19.7376L14.6171 15.5208L20.2845 12.4867C21.6138 11.7751 21.8807 9.98302 20.8165 8.91495L15.5884 3.66802Z" fill="#FE8422"/>
</svg>
