<svg width="24" height="24" viewBox="0 0 24 24" fill="none" xmlns="http://www.w3.org/2000/svg">
<path fill-rule="evenodd" clip-rule="evenodd" d="M13.4645 3.46446C15.4171 1.51185 18.5829 1.51185 20.5355 3.46446C22.4881 5.41708 22.4881 8.58291 20.5355 10.5355L16.5355 14.5355C14.5829 16.4881 11.4171 16.4881 9.46449 14.5355C9.07397 14.145 9.07397 13.5118 9.46449 13.1213C9.85501 12.7308 10.4882 12.7308 10.8787 13.1213C12.0503 14.2929 13.9497 14.2929 15.1213 13.1213L19.1213 9.12132C20.2929 7.94975 20.2929 6.05025 19.1213 4.87868C17.9497 3.70711 16.0503 3.70711 14.8787 4.87868L13.7791 5.97828C13.3886 6.36881 12.7554 6.36881 12.3649 5.97829C11.9744 5.58777 11.9744 4.9546 12.3649 4.56408L13.4645 3.46446ZM7.46446 9.46449C9.41708 7.51185 12.5829 7.51185 14.5355 9.4645C14.926 9.85502 14.926 10.4882 14.5355 10.8787C14.145 11.2692 13.5118 11.2692 13.1213 10.8787C11.9497 9.70711 10.0503 9.70711 8.87868 10.8787L4.87867 14.8787C3.70711 16.0503 3.70711 17.9497 4.87868 19.1213C6.05025 20.2929 7.94974 20.2929 9.12132 19.1213L10.2229 18.0198C10.6134 17.6293 11.2466 17.6293 11.6371 18.0198C12.0276 18.4104 12.0276 19.0435 11.6371 19.434L10.5355 20.5355C8.58291 22.4881 5.41708 22.4881 3.46446 20.5355C1.51185 18.5829 1.51185 15.4171 3.46446 13.4645L7.46446 9.46449C7.46446 9.46449 7.46446 9.46449 7.46446 9.46449Z" fill="black"/>
</svg>
