<svg width="24" height="24" viewBox="0 0 24 24" fill="none" xmlns="http://www.w3.org/2000/svg">
<path fill-rule="evenodd" clip-rule="evenodd" d="M3.74999 6.56276H5.80199C5.96297 7.15505 6.31437 7.67793 6.80199 8.0507C7.2896 8.42348 7.88633 8.62545 8.50012 8.62545C9.1139 8.62545 9.71063 8.42348 10.1982 8.0507C10.6859 7.67793 11.0373 7.15505 11.1982 6.56276H20.25C20.4489 6.56276 20.6397 6.48374 20.7803 6.34309C20.921 6.20243 21 6.01167 21 5.81276C21 5.61384 20.921 5.42308 20.7803 5.28243C20.6397 5.14177 20.4489 5.06276 20.25 5.06276H11.1982C11.0373 4.47046 10.6859 3.94758 10.1982 3.57481C9.71063 3.20203 9.1139 3.00006 8.50012 3.00006C7.88633 3.00006 7.2896 3.20203 6.80199 3.57481C6.31437 3.94758 5.96297 4.47046 5.80199 5.06276H3.74999C3.55108 5.06276 3.36031 5.14177 3.21966 5.28243C3.07901 5.42308 2.99999 5.61384 2.99999 5.81276C2.99999 6.01167 3.07901 6.20243 3.21966 6.34309C3.36031 6.48374 3.55108 6.56276 3.74999 6.56276ZM8.49974 4.50026C8.75933 4.50026 9.01309 4.57723 9.22893 4.72145C9.44477 4.86567 9.61299 5.07066 9.71233 5.31048C9.81167 5.55031 9.83767 5.81421 9.78702 6.06881C9.73638 6.32341 9.61138 6.55728 9.42782 6.74083C9.24426 6.92439 9.0104 7.04939 8.7558 7.10004C8.5012 7.15068 8.2373 7.12469 7.99747 7.02535C7.75764 6.92601 7.55266 6.75778 7.40844 6.54194C7.26422 6.3261 7.18724 6.07234 7.18724 5.81276C7.18764 5.46478 7.32605 5.13117 7.5721 4.88512C7.81816 4.63906 8.15177 4.50065 8.49974 4.50026ZM20.25 11.2493H18.198C18.0373 10.6569 17.686 10.1338 17.1984 9.76091C16.7109 9.38798 16.1141 9.18591 15.5002 9.18591C14.8864 9.18591 14.2896 9.38798 13.802 9.76091C13.3145 10.1338 12.9632 10.6569 12.8025 11.2493H3.74999C3.55108 11.2493 3.36031 11.3284 3.21966 11.469C3.07901 11.6097 2.99999 11.8004 2.99999 11.9993C2.99999 12.1982 3.07901 12.389 3.21966 12.5297C3.36031 12.6703 3.55108 12.7493 3.74999 12.7493H12.8025C12.9632 13.3418 13.3145 13.8648 13.802 14.2378C14.2896 14.6107 14.8864 14.8128 15.5002 14.8128C16.1141 14.8128 16.7109 14.6107 17.1984 14.2378C17.686 13.8648 18.0373 13.3418 18.198 12.7493H20.25C20.4489 12.7493 20.6397 12.6703 20.7803 12.5297C20.921 12.389 21 12.1982 21 11.9993C21 11.8004 20.921 11.6097 20.7803 11.469C20.6397 11.3284 20.4489 11.2493 20.25 11.2493ZM15.5002 13.3118C15.2407 13.3118 14.9869 13.2349 14.7711 13.0906C14.5552 12.9464 14.387 12.7414 14.2877 12.5016C14.1883 12.2618 14.1623 11.9979 14.213 11.7433C14.2636 11.4887 14.3886 11.2548 14.5722 11.0713C14.7557 10.8877 14.9896 10.7627 15.2442 10.7121C15.4988 10.6614 15.7627 10.6874 16.0025 10.7867C16.2423 10.8861 16.4473 11.0543 16.5915 11.2701C16.7358 11.486 16.8127 11.7397 16.8127 11.9993C16.8123 12.3473 16.6739 12.6809 16.4279 12.927C16.1818 13.173 15.8482 13.3114 15.5002 13.3118ZM11.1982 17.4377H20.25C20.4489 17.4377 20.6397 17.5167 20.7803 17.6574C20.921 17.7981 21 17.9888 21 18.1877C21 18.3866 20.921 18.5774 20.7803 18.7181C20.6397 18.8587 20.4489 18.9377 20.25 18.9377H11.1982C11.0373 19.53 10.6859 20.0529 10.1982 20.4257C9.71063 20.7984 9.1139 21.0004 8.50012 21.0004C7.88633 21.0004 7.2896 20.7984 6.80199 20.4257C6.31437 20.0529 5.96297 19.53 5.80199 18.9377H3.74999C3.55108 18.9377 3.36031 18.8587 3.21966 18.7181C3.07901 18.5774 2.99999 18.3866 2.99999 18.1877C2.99999 17.9888 3.07901 17.7981 3.21966 17.6574C3.36031 17.5167 3.55108 17.4377 3.74999 17.4377H5.80199C5.96297 16.8454 6.31437 16.3226 6.80199 15.9498C7.2896 15.577 7.88633 15.375 8.50012 15.375C9.1139 15.375 9.71063 15.577 10.1982 15.9498C10.6859 16.3226 11.0373 16.8454 11.1982 17.4377ZM7.77056 19.279C7.9864 19.4232 8.24015 19.5002 8.49974 19.5002C8.84766 19.4996 9.18115 19.3612 9.42716 19.1151C9.67318 18.8691 9.81165 18.5356 9.81224 18.1877C9.81224 17.9281 9.73527 17.6744 9.59105 17.4585C9.44683 17.2427 9.24184 17.0745 9.00201 16.9751C8.76219 16.8758 8.49829 16.8498 8.24369 16.9005C7.98909 16.9511 7.75522 17.0761 7.57166 17.2597C7.38811 17.4432 7.2631 17.6771 7.21246 17.9317C7.16182 18.1863 7.18781 18.4502 7.28715 18.69C7.38649 18.9298 7.55472 19.1348 7.77056 19.279Z" fill="black"/>
</svg>
