<svg width="24" height="24" viewBox="0 0 24 24" fill="none" xmlns="http://www.w3.org/2000/svg">
<path fill-rule="evenodd" clip-rule="evenodd" d="M12 3.60001C12.6628 3.60001 13.2 4.13727 13.2 4.80001V10.8H19.2C19.8628 10.8 20.4 11.3373 20.4 12C20.4 12.6628 19.8628 13.2 19.2 13.2H13.2V19.2C13.2 19.8628 12.6628 20.4 12 20.4C11.3373 20.4 10.8 19.8628 10.8 19.2V13.2H4.80001C4.13727 13.2 3.60001 12.6628 3.60001 12C3.60001 11.3373 4.13727 10.8 4.80001 10.8H10.8V4.80001C10.8 4.13727 11.3373 3.60001 12 3.60001Z" fill="black"/>
</svg>
