<svg width="24" height="24" viewBox="0 0 24 24" fill="none" xmlns="http://www.w3.org/2000/svg">
<path fill-rule="evenodd" clip-rule="evenodd" d="M11.2425 3.02986C11.7783 3.16381 12.1041 3.70674 11.9701 4.24254L11.0308 8H14.9692L16.0299 3.75746C16.1638 3.22167 16.7067 2.89591 17.2425 3.02986C17.7783 3.16381 18.1041 3.70674 17.9701 4.24254L17.0308 8H19C19.5523 8 20 8.44772 20 9C20 9.55228 19.5523 10 19 10H16.5308L15.5308 14H19C19.5523 14 20 14.4477 20 15C20 15.5523 19.5523 16 19 16H15.0308L13.9701 20.2425C13.8362 20.7783 13.2933 21.1041 12.7575 20.9701C12.2217 20.8362 11.8959 20.2933 12.0299 19.7575L12.9692 16H9.03078L7.97014 20.2425C7.83619 20.7783 7.29326 21.1041 6.75746 20.9701C6.22167 20.8362 5.89591 20.2933 6.02986 19.7575L6.96922 16H5C4.44772 16 4 15.5523 4 15C4 14.4477 4.44772 14 5 14H7.46922L8.46922 10H5C4.44772 10 4 9.55228 4 9C4 8.44772 4.44772 8 5 8H8.96922L10.0299 3.75746C10.1638 3.22167 10.7067 2.89591 11.2425 3.02986ZM13.4692 14L14.4692 10H10.5308L9.53078 14H13.4692Z" fill="black"/>
</svg>
