<svg width="24" height="24" viewBox="0 0 24 24" fill="none" xmlns="http://www.w3.org/2000/svg">
<path d="M21.4607 11.6173C21.685 11.451 21.8513 11.219 21.9364 10.9538C22.0216 10.6887 22.0212 10.4037 21.9353 10.1388C21.8495 9.87385 21.6825 9.64231 21.4579 9.47662C21.2332 9.31093 20.962 9.21939 20.6824 9.21485L15.2521 9.01064C15.2254 9.00881 15.1998 8.99933 15.1784 8.98334C15.157 8.96736 15.1407 8.94555 15.1315 8.92055L13.255 3.87547C13.1607 3.6188 12.9895 3.39716 12.7645 3.24057C12.5395 3.08398 12.2715 3 11.997 3C11.7224 3 11.4545 3.08398 11.2295 3.24057C11.0045 3.39716 10.8333 3.6188 10.739 3.87547L8.86854 8.93857C8.8593 8.96357 8.84299 8.98538 8.82158 9.00136C8.80017 9.01735 8.77457 9.02683 8.74787 9.02866L3.31759 9.23287C3.038 9.23741 2.76684 9.32895 2.54215 9.49464C2.31745 9.66033 2.15048 9.89187 2.06465 10.1568C1.97883 10.4217 1.97844 10.7067 2.06355 10.9719C2.14867 11.237 2.31501 11.469 2.53925 11.6353L6.799 14.9686C6.82032 14.9853 6.83626 15.0079 6.84484 15.0335C6.85342 15.0591 6.85426 15.0867 6.84727 15.1128L5.3811 20.284C5.30512 20.5473 5.31248 20.8276 5.40218 21.0866C5.49188 21.3456 5.65955 21.5708 5.8824 21.7316C6.10525 21.8924 6.37245 21.981 6.64765 21.9852C6.92285 21.9895 7.1927 21.9093 7.42047 21.7555L11.9216 18.7525C11.9437 18.7372 11.97 18.7291 11.997 18.7291C12.0239 18.7291 12.0502 18.7372 12.0724 18.7525L16.5735 21.7555C16.7982 21.9145 17.0671 22 17.3428 22C17.6185 22 17.8874 21.9145 18.1121 21.7555C18.335 21.5962 18.5028 21.3721 18.5925 21.1139C18.6822 20.8558 18.6893 20.5763 18.6129 20.314L17.1346 15.1248C17.1268 15.0987 17.1272 15.0709 17.1359 15.0451C17.1445 15.0193 17.1609 14.9968 17.1829 14.9807L21.4607 11.6173Z" fill="black"/>
</svg>
